<?xml version="1.0" encoding="utf-8"?>
<!-- Generator: Adobe Illustrator 25.0.0, SVG Export Plug-In . SVG Version: 6.00 Build 0)  -->
<svg version="1.1" xmlns="http://www.w3.org/2000/svg" xmlns:xlink="http://www.w3.org/1999/xlink" x="0px" y="0px"
	 viewBox="0 0 91.29 20.58" style="enable-background:new 0 0 91.29 20.58;" xml:space="preserve">
<style type="text/css">
	.st0{fill:none;stroke:#ED1111;stroke-linecap:round;stroke-linejoin:round;stroke-miterlimit:10;}
</style>
<g id="Layer_2">
	<path class="st0" d="M13.5,3.88c0,0-17.06,20.53,1.16,12.33c0.69-0.31,1.37-0.73,1.95-1.11c2.58-1.65,14.59-12.48-4.63-13.84
		c-0.96-0.07-2.03,0.08-3.3,0.32C4.81,2.32-4.1,5.57,4.23,9.23"/>
	<path class="st0" d="M29.63,11.12c0,0-7.35,0.63-5.18-0.62c-0.55-0.56,3.96-1.61,3.44,2.14c-0.07,0.53-0.32,1.03-0.68,1.43
		c-1.13,1.27-3.81,3.91-4.63,1.45c0,0,0.09-3.21,1.87-5.26"/>
	<path class="st0" d="M35.56,4.8c0,0-5.76,7.34-6.1,10.77c-0.05,0.5,0.45,0.88,0.93,0.72c1.6-0.53,5.02-2.01,5.75-5.22
		c0.13-0.58-0.35-1.16-0.94-1.09c-0.96,0.12-2.59,0.89-5.05,3.75"/>
	<path class="st0" d="M41.09,6.97c0,0-1.46,0.81-0.42,1.51c0,0,0.83,0.56,1.01-0.62C41.88,6.54,41.09,6.97,41.09,6.97z"/>
	<path class="st0" d="M40.05,9.74c0,0-6,10.21-0.74,6.26c0,0,5.47-4.74,5.85-6.26s-4.25,5.83-3.89,6.6c0.3,0.65,1.99-1.88,3.1-3.16
		c0.39-0.45,0.77-0.88,1.17-1.32C47.21,10,51.84,7.42,47,14.07c-0.5,0.71-3.54,5.64,5.11-1.54"/>
	<path class="st0" d="M57.56,11.3c0,0-9.4-1.77,4.1-8.53c0,0,11.27-5.23,4.54,4.27s-7.04,10.25-4.88,9.87"/>
	<path class="st0" d="M78.95,2.9c0,0-8.36,2.29-11.83,6.07c-0.28,0.31-0.34,0.76-0.12,1.11c1.58,2.51,8.07,12.44,9.28,8.14"/>
	<path class="st0" d="M77.92,6.82c0,0-1.49,0.74-1.07,1.57c0,0,0.93,0.78,1.51-0.5l0.14-0.33C78.51,7.56,78.87,6.53,77.92,6.82z"/>
	<path class="st0" d="M76.94,6.78"/>
	<path class="st0" d="M90.62,13.8"/>
	<path class="st0" d="M83.51,10.37"/>
	<path class="st0" d="M78.58,16.54"/>
	<path class="st0" d="M81.69,9.92"/>
	<path class="st0" d="M90.9,13.8"/>
	<path class="st0" d="M85.55,10.37"/>
	<path class="st0" d="M78.34,16.31"/>
	<path class="st0" d="M81.69,9.92"/>
	<path class="st0" d="M75.99,16.06"/>
	<path class="st0" d="M76.61,9.74c0,0-9.06,15.91,4.81,0.19c0,0-2.84,3.98-2.95,5.81c-0.02,0.24,0.3,0.36,0.45,0.17
		c1.92-2.24,10.78-12.43,3.57-0.08c0,0,10.63-13.04,4.19-1.34c0,0-2.11,4.62,3.94-0.69"/>
</g>
</svg>
