<svg width="158" height="160" viewBox="0 0 158 160" fill="none" xmlns="http://www.w3.org/2000/svg">
<path d="M41 19L119 143" stroke="#0B0B0D"/>
<path d="M127 24.5L34 135" stroke="#0B0B0D"/>
<path d="M9.5 52.5L146 106.5" stroke="#0B0B0D"/>
<path d="M84 3.5L74 157.5" stroke="#0B0B0D"/>
<path d="M6.5 99.5L152.5 61.5" stroke="#0B0B0D"/>
<path d="M48.5 52L113.5 110" stroke="#0B0B0D"/>
<path d="M70.5 40L90 122.5" stroke="#0B0B0D"/>
<path d="M97 42.5L61 120.5" stroke="#0B0B0D"/>
<path d="M41 101.5L118 58.5" stroke="#0B0B0D"/>
<path d="M40 76L121 84.5" stroke="#0B0B0D"/>
<circle cx="38" cy="15" r="6" fill="#0B0B0D"/>
<circle cx="130" cy="21" r="6" fill="#0B0B0D"/>
<circle cx="150" cy="107" r="6" fill="#0B0B0D"/>
<circle cx="32" cy="139" r="6" fill="#0B0B0D"/>
<circle cx="6" cy="50" r="6" fill="#0B0B0D"/>
<circle cx="5" cy="99" r="4" fill="#0B0B0D"/>
<circle cx="37" cy="75" r="4" fill="#0B0B0D"/>
<circle cx="90" cy="123" r="4" fill="#0B0B0D"/>
<circle cx="124" cy="85" r="4" fill="#0B0B0D"/>
<circle cx="155" cy="61" r="3" fill="#0B0B0D"/>
<circle cx="113" cy="109" r="3" fill="#0B0B0D"/>
<circle cx="120" cy="144" r="3" fill="#0B0B0D"/>
<circle cx="74" cy="157" r="3" fill="#0B0B0D"/>
<circle cx="61" cy="120" r="3" fill="#0B0B0D"/>
<circle cx="41" cy="102" r="3" fill="#0B0B0D"/>
<circle cx="48" cy="51" r="3" fill="#0B0B0D"/>
<circle cx="84" cy="3" r="3" fill="#0B0B0D"/>
<circle cx="119" cy="57" r="3" fill="#0B0B0D"/>
<circle cx="98" cy="40" r="4" fill="#0B0B0D"/>
<circle cx="70" cy="37" r="4" fill="#0B0B0D"/>
</svg>
