<?xml version="1.0" encoding="utf-8"?>
<!-- Generator: Adobe Illustrator 25.0.0, SVG Export Plug-In . SVG Version: 6.00 Build 0)  -->
<svg version="1.1" xmlns="http://www.w3.org/2000/svg" xmlns:xlink="http://www.w3.org/1999/xlink" x="0px" y="0px"
	 viewBox="0 0 608.8 186.8" style="enable-background:new 0 0 608.8 186.8;" xml:space="preserve">
<style type="text/css">
	.st0{display:none;}
	.st1{fill:none;stroke:#000000;stroke-width:5;stroke-linecap:round;stroke-linejoin:round;stroke-miterlimit:10;}
</style>
<g id="Layer_1" class="st0">
	
		<image style="display:inline;overflow:visible;" width="890" height="270" xlink:href="C:\Users\EZEN\Desktop\캡처.PNG"  transform="matrix(0.75 0 0 0.75 -23.5049 -12.9208)">
	</image>
</g>
<g id="Layer_2">
	<path class="st1" d="M50.3,86.8c0,0-43,17.8-41.5-13.2c0,0-1.1-30.8,60.4-47.4c0,0,45.6-14.6,32.3,13.4
		c-0.9-0.7-52.5,132-25.5,77.7c0,0,36.4-70,64.7-77.3c5.2-1.4,7.8,0.7,8,5.6c0.5,9.3-5.3,30.2-22.3,76.8c0,0,38.3-76.9,79.2-99
		c5.5-3,7.6-1.5,5,3.3C191.8,61,156.9,175.8,201,145.9"/>
	<path class="st1" d="M219.6,81.3c0,0-29.2,82.2,15.4,22.6c0,0,27.8-45.6,12.4,2.4c0,0-25.3,72.8-44.9,68.9
		c-0.7-0.1-1.3-0.4-1.9-0.8c-4.9-2.9-20-17.4,54.4-64.8"/>
	<path class="st1" d="M280.2,75.6c0,0-26.4,13.5-39.4-3.8c0,0-20.2-26.6,56.6-58.5c0,0,64.6-26.2,32.3,40.2
		c0,0-70.3,127.6-13.1,61.1c0,0,80-102.4,62-59.6c0,0-34.8,70.9,11.9,66.3c9-0.9,17.5-4.4,24.8-9.8c10.6-7.9,24.6-23.3,30.3-44.8
		c0,0,12.6-43-22.8-42.3"/>
	<path class="st1" d="M454.8,72.6c0.4-0.1,20.8-8.1,29.9,3.4c0,0,11,13.4-15,35.8c0,0-20,16.8-22.1-5.8c0,0-5.4-42.2,49.3-28.6"/>
	<path class="st1" d="M515.4,65.5l-21.3,50.3c0,0,27.2-58.8,52.6-48"/>
	<path class="st1" d="M583.5,29.8c0,0-40.5,39.1-50.3,84c0,0,56.3-69.9,60.8-53c0,0,3.1,22.1-36.6,12.4c0,0,21.1,80.8,43.2,43.5"/>
</g>
</svg>
