<?xml version="1.0" encoding="utf-8"?>
<!-- Generator: Adobe Illustrator 25.0.0, SVG Export Plug-In . SVG Version: 6.00 Build 0)  -->
<svg version="1.1" id="Layer_2" xmlns="http://www.w3.org/2000/svg" xmlns:xlink="http://www.w3.org/1999/xlink" x="0px" y="0px"
	 viewBox="0 0 651.2 403.1" style="enable-background:new 0 0 651.2 403.1;" xml:space="preserve">
<style type="text/css">
	.st0{fill:none;stroke:#000000;stroke-miterlimit:10;}
	.st1{fill:none;stroke:#000000;stroke-width:8;stroke-miterlimit:10;}
</style>
<path class="st0" d="M645.9,16c0,0,13.9,79.1-187.1,62c0,0-220.9-25.2-129.7,69.5c0,0,150.1,142.9-30.7,124.8
	c0,0-296.2-43.1-285.9,123.7"/>
<path class="st1" d="M13.1,389.3c-1-0.2-2-0.1-3,0.4c-1.4,0.7-2.7,2.4-1.9,5.4c0,0,0.7,3.2,4.3,2.7c0,0,3.7-0.1,3.4-4.3
	C15.9,393.5,16.1,390.1,13.1,389.3z"/>
</svg>
