<?xml version="1.0" encoding="utf-8"?>
<!-- Generator: Adobe Illustrator 25.0.0, SVG Export Plug-In . SVG Version: 6.00 Build 0)  -->
<svg version="1.1" id="Layer_2" xmlns="http://www.w3.org/2000/svg" xmlns:xlink="http://www.w3.org/1999/xlink" x="0px" y="0px"
	 viewBox="0 0 493.3 308" style="enable-background:new 0 0 493.3 308;" xml:space="preserve">
<style type="text/css">
	.st0{fill:none;stroke:#000000;}
	.st1{fill:none;stroke:#000000;stroke-width:8;}
</style>
<path class="st0" d="M487.1,13.8c0,0-2.2,62.1-138.3,46.1c0,0-166.1-25-90.8,61.3c0,0,90.3,93.6-28,83.6c0,0-138.4-15.3-178.2,15.2
	c0,0-37.5,26.1-40.9,76"/>
<path class="st1" d="M10,291.3c-0.5,0.5-1.1,1.2-1.3,2.1c-0.6,2.5,1.8,4.8,4.3,4.3c0.1,0,0.2-0.1,0.4-0.1c1.2-0.4,2.1-1.5,2.3-2.8
	c0-0.2,0-0.3,0.1-0.5c0.1-1.2-0.2-2.3-1-3.2c-0.5-0.5-1.3-1-2.4-0.9C11.3,290.3,10.6,290.7,10,291.3z"/>
</svg>
