<?xml version="1.0" encoding="utf-8"?>
<!-- Generator: Adobe Illustrator 25.0.0, SVG Export Plug-In . SVG Version: 6.00 Build 0)  -->
<svg version="1.1" xmlns="http://www.w3.org/2000/svg" xmlns:xlink="http://www.w3.org/1999/xlink" x="0px" y="0px"
	 viewBox="0 0 669.4 406.3" style="enable-background:new 0 0 669.4 406.3;" xml:space="preserve">
<style type="text/css">
	.st1{fill:none;stroke:#000000;stroke-miterlimit:10;}
	.st2{fill:none;stroke:#000000;stroke-width:10;stroke-miterlimit:10;}
</style>
	<path class="st1" d="M15.6,17.6c0,0-6,100,216,68c0,0,210.4-38.1,67.4,101.9c0,0-95.8,96.6,100.6,83.1c0,0,254-21,248,120"/>
	<path class="st2" d="M647.2,388.9c0,0-3,0.9-3.4,3.7c-0.3,2.2,1.3,4.3,3.6,4.6c1.1,0.1,2.3-0.1,3.4-1.3c0,0,0.5-0.6,0.9-1.6
		c0.8-2-0.1-4.3-2-5.2C649,388.8,648.2,388.7,647.2,388.9z"/>
</svg>
