<?xml version="1.0" encoding="utf-8"?>
<!-- Generator: Adobe Illustrator 25.0.0, SVG Export Plug-In . SVG Version: 6.00 Build 0)  -->
<svg version="1.1" xmlns="http://www.w3.org/2000/svg" xmlns:xlink="http://www.w3.org/1999/xlink" x="0px" y="0px"
	 viewBox="0 0 660.8 398.9" style="enable-background:new 0 0 660.8 398.9;" xml:space="preserve">
<style type="text/css">
	.st0{display:none;}
	.st1{fill:none;stroke:#000000;stroke-miterlimit:10;}
	.st2{fill:none;stroke:#000000;stroke-width:9;stroke-miterlimit:10;}
</style>
	<path class="st1" d="M650.9,9.3c0,0-10.7,74.1-218.1,52.8c8.6,1.5-171.1-21.4-67.7,104.8c0,0,103,114.4-79.8,92.7
		c0,0-268-45.6-268.8,117.6"/>
	<path class="st2" d="M14,376.7c-0.3,1.1-0.3,2.4,0.4,3.5c0.9,1.5,2.8,2.1,4.4,1.5c0.4-0.2,0.9-0.4,1.2-0.8c0.6-0.7,0.9-1.6,0.9-2.5
		c0-0.9-0.3-2.1-1.2-3.1c0,0,0,0-0.1-0.1C17.7,373.4,14.6,374.3,14,376.7z"/>
</svg>
