<?xml version="1.0" encoding="utf-8"?>
<!-- Generator: Adobe Illustrator 25.0.0, SVG Export Plug-In . SVG Version: 6.00 Build 0)  -->
<svg version="1.1" id="Layer_2" xmlns="http://www.w3.org/2000/svg" xmlns:xlink="http://www.w3.org/1999/xlink" x="0px" y="0px"
	 viewBox="0 0 402.1 501.9" style="enable-background:new 0 0 402.1 501.9;" xml:space="preserve">
<style type="text/css">
	.st0{fill:none;stroke:#000000;stroke-miterlimit:10;}
	.st1{fill:none;stroke:#000000;stroke-width:9;stroke-miterlimit:10;}
</style>
<path class="st0" d="M9,7.6c0,0,353.3,169.9,239.3,205c0,0-229.4,62.5-13.6,110.1c0,0,336.5,68.4,36.1,163"/>
<path class="st1" d="M271.6,482.8c-0.7-0.3-1.6-0.3-2.6,0c-1.8,0.5-3.1,2.4-2.8,4.5c0.2,1.1,0.8,2.2,2.3,2.9c0,0,2.8,0.9,4.4-1.3
	c0,0,0,0,0,0C274.5,486.9,273.8,483.7,271.6,482.8z"/>
</svg>
