<?xml version="1.0" encoding="utf-8"?>
<!-- Generator: Adobe Illustrator 25.0.0, SVG Export Plug-In . SVG Version: 6.00 Build 0)  -->
<svg version="1.1" xmlns="http://www.w3.org/2000/svg" xmlns:xlink="http://www.w3.org/1999/xlink" x="0px" y="0px"
	 viewBox="0 0 700.4 299.4" style="enable-background:new 0 0 700.4 299.4;" xml:space="preserve">
<style type="text/css">
	.st0{display:none;}
	.st1{fill:none;stroke:#FF0000;stroke-width:9;stroke-linecap:round;stroke-linejoin:round;}
</style>
<g id="Layer_1" class="st0">
	
		<image style="display:inline;overflow:visible;" width="1082" height="524" xlink:href="C:\Users\EZEN\Desktop\my work.PNG"  transform="matrix(0.75 0 0 0.75 -99.0693 -30.1485)">
	</image>
</g>
<g id="Layer_2">
	<path class="st1" d="M69.1,224.2c0,0-69.8,34.8-52.6-15.5c6-17.6,15.8-33,27.2-46c26.2-29.6,88.4-70.9,76,7.3
		c0,0-39.9,193.7-1.4,66.6c0,0,69.9-169.2,64.2-59.4c0,0-41.7,188.6,48.5-61.3c0,0,48.5-114.8,16.4,74.1c0,0-17.1,103.4,32.1,65.6"
		/>
	<path class="st1" d="M342.2,190c0,0-69.1,69.9-54.2,97.7c0,0,17.8,20.7,39.2-59.9c0,0,20-122.2-9.3-42.8c0,0-47.7,97.7-32.1-18.1"
		/>
	<path class="st1" d="M385.2,139.1c0,0-41.8,136.9,39.7-12.4c0,0-17.4,64.3,11.9,54.9c5.7-1.8,10.5-5.7,13.8-10.7
		c6.9-10.4,18.7-33.2,13.9-62.7"/>
	<path class="st1" d="M486.9,104.4c0,0,33.3-18.6,41.2,9.3c2.8,9.8,1.5,20.2-3,29.3c-6.8,13.7-17.6,27.4-34.1,20.2
		c-12.9-5.5-13.3-24.9-6.7-37.3c6.2-11.7,21.8-23.8,59.1-25.1"/>
	<path class="st1" d="M561.7,78.8c0,0-14.6,64.8-11.4,73.6c0,0,20.3-89.6,53.8-78.9"/>
	<path class="st1" d="M640.2,10.3c0,0-41.7,55.6-32.1,123.9c0,0,23.1-72.1,46.7-84.9c4.5-2.4,10,0.8,9.9,5.9
		c-0.1,7.9-6,19.1-38.1,20.7c-2,0.1-3.2,2.2-2.3,4c9,17.9,47.5,89.6,64.8,40.3"/>
</g>
</svg>
