<?xml version="1.0" encoding="utf-8"?>
<!-- Generator: Adobe Illustrator 25.0.0, SVG Export Plug-In . SVG Version: 6.00 Build 0)  -->
<svg version="1.1" xmlns="http://www.w3.org/2000/svg" xmlns:xlink="http://www.w3.org/1999/xlink" x="0px" y="0px"
	 viewBox="0 0 334.7 429.9" style="enable-background:new 0 0 334.7 429.9;" xml:space="preserve">
<style type="text/css">
	.st0{display:none;}
	.st1{fill:none;stroke:#000000;}
	.st2{fill:none;stroke:#000000;stroke-width:7;}
</style>
<g id="Layer_1" class="st0">
	
		<image style="display:inline;overflow:visible;" width="483" height="596" xlink:href="C:\Users\EZEN\Desktop\5.PNG"  transform="matrix(0.75 0 0 0.75 -25.9109 -17.5842)">
	</image>
</g>
<g id="Layer_2">
	<path class="st1" d="M10,12.4c0,0,311.8,148.8,191.5,175.4c0,0-179.6,37.1-27.6,78.9c0,0,300.4,76.5,52.8,146.9"/>
	<path class="st2" d="M228.7,411.1c-1.2-0.2-2.9-0.1-4,1.2c-0.7,0.9-0.9,2.1-0.5,3.2c0.3,1,1.2,2.1,3.2,2.1c0,0,2.7,0,3.8-2.5
		c0,0,0.5-1.2-0.1-2.4C230.6,411.7,229.7,411.2,228.7,411.1z"/>
</g>
</svg>
