<?xml version="1.0" encoding="utf-8"?>
<!-- Generator: Adobe Illustrator 25.0.0, SVG Export Plug-In . SVG Version: 6.00 Build 0)  -->
<svg version="1.1" xmlns="http://www.w3.org/2000/svg" xmlns:xlink="http://www.w3.org/1999/xlink" x="0px" y="0px"
	 viewBox="0 0 499 312.2" style="enable-background:new 0 0 499 312.2;" xml:space="preserve">
<style type="text/css">
	.st0{display:none;}
	.st1{fill:none;stroke:#000000;}
	.st2{fill:none;stroke:#000000;stroke-width:7;}
</style>
<g id="Layer_2">
	<path class="st1" d="M489.6,7.7c0,0,30.8,67.4-213.9,53.6c0,0-112.1-12.1,13.5,89.7c3,2.4,5.7,4.8,7.9,7.9
		c9.6,13.8,15.4,45.5-133.1,47.4c0,0-171.1-4.3-149.2,94.1"/>
	<path class="st2" d="M13.4,296.6c0,0-2.6,3.5,0.9,5.3c0,0,3.3,1.5,4.5-1.8c0,0,1.3-2.7-0.8-4.4C18,295.7,15,294.1,13.4,296.6z"/>
</g>
</svg>
