<?xml version="1.0" encoding="utf-8"?>
<!-- Generator: Adobe Illustrator 25.0.0, SVG Export Plug-In . SVG Version: 6.00 Build 0)  -->
<svg version="1.1" id="Layer_2" xmlns="http://www.w3.org/2000/svg" xmlns:xlink="http://www.w3.org/1999/xlink" x="0px" y="0px"
	 viewBox="0 0 328.6 169.7" style="enable-background:new 0 0 328.6 169.7;" xml:space="preserve">
<style type="text/css">
	.st0{fill:none;stroke:#000000;}
	.st1{fill:none;stroke:#000000;stroke-width:8;}
</style>
<path class="st0" d="M17.4,6.4c0,0-20.7,62.4,145.8,44.2c0,0,155.5-18.2,135.2,109.1"/>
<path class="st1" d="M295.4,155.1c-0.9,0.6-1.7,1.7-1.6,3.7c0.1,1.1,0.3,2.2,1.1,2.9c1,0.8,2,1.4,4.3,0.7c0,0,1.8-0.7,2.2-2.7
	c0.2-0.8,0-1.6-0.3-2.4c-0.1-0.2-0.1-0.3-0.2-0.5C299.9,154.8,297.3,153.9,295.4,155.1z"/>
</svg>
