<?xml version="1.0" encoding="utf-8"?>
<!-- Generator: Adobe Illustrator 25.0.0, SVG Export Plug-In . SVG Version: 6.00 Build 0)  -->
<svg version="1.1" id="Layer_2" xmlns="http://www.w3.org/2000/svg" xmlns:xlink="http://www.w3.org/1999/xlink" x="0px" y="0px"
	 viewBox="0 0 506.8 315.1" style="enable-background:new 0 0 506.8 315.1;" xml:space="preserve">
<style type="text/css">
	.st0{fill:none;stroke:#000000;}
	.st1{fill:none;stroke:#000000;stroke-width:8;}
</style>
<path class="st0" d="M12.6,9c0,0-21.1,76,184.2,50.4c0,0,125-12.8,43.2,71.3c0,0-103.4,83.4,53.2,71.8c0,0,192.5-23.3,200.1,94.6"/>
<path class="st1" d="M490.4,293.1c-1.3,0.7-2.4,2.3-1.6,4.6c0.5,1.4,1.7,2.4,3.1,2.6l0.1,0c2.2,0.4,4.1-1.4,4.1-3.6
	c0-0.2,0-0.3,0-0.5c-0.1-0.9-0.3-1.9-0.9-2.6c-0.3-0.3-0.7-0.6-1.2-0.8C492.6,292.4,491.5,292.6,490.4,293.1z"/>
</svg>
