<?xml version="1.0" encoding="utf-8"?>
<!-- Generator: Adobe Illustrator 25.0.0, SVG Export Plug-In . SVG Version: 6.00 Build 0)  -->
<svg version="1.1" id="Layer_2" xmlns="http://www.w3.org/2000/svg" xmlns:xlink="http://www.w3.org/1999/xlink" x="0px" y="0px"
	 viewBox="0 0 667.2 414.9" style="enable-background:new 0 0 667.2 414.9;" xml:space="preserve">
<style type="text/css">
	.st0{fill:none;stroke:#000000;stroke-miterlimit:10;}
	.st1{fill:none;stroke:#000000;stroke-width:7;stroke-miterlimit:10;}
</style>
<path class="st0" d="M652.3,12.1c0,0,20,88.4-251.6,70.6c0,0-209.8-28.5-24.2,114.1c0,0,96.2,73.4-94.1,77.7
	c0,0-290.1-10.7-268,121.2"/>
<path class="st1" d="M11.9,394.9c-0.7,0.6-1.4,1.4-1.6,2.5c-0.5,2.4,1.8,4.7,4.1,4.1c0.6-0.1,0.9-0.3,1.3-0.6c0.5-0.4,0.9-1,1.2-1.6
	c0.5-1,1-2.5,0.2-3.6c0,0,0-0.1-0.2-0.3C15.8,393.8,13.5,393.5,11.9,394.9z"/>
</svg>
