<?xml version="1.0" encoding="utf-8"?>
<!-- Generator: Adobe Illustrator 25.0.0, SVG Export Plug-In . SVG Version: 6.00 Build 0)  -->
<svg version="1.1" id="Layer_2" xmlns="http://www.w3.org/2000/svg" xmlns:xlink="http://www.w3.org/1999/xlink" x="0px" y="0px"
	 viewBox="0 0 313 121.2" style="enable-background:new 0 0 313 121.2;" xml:space="preserve">
<style type="text/css">
	.st0{fill:none;stroke:#FF0606;stroke-width:3;stroke-linecap:round;stroke-linejoin:round;stroke-miterlimit:10;}
</style>
<path class="st0" d="M46.7,3.6C47.4,6,23.9,112.2,4.4,114.3c0,0,19.8-14.7,34.9-72.9c1.1-4.3,2.9-8.5,4.9-12.4
	C50.9,16.2,69.2-5.8,77.5,23c0.4,1.4,0.6,2.8,0.8,4.2c0.8,10.6,1.9,57.3-37,85.9c0,0-17.8,8.3-16.6-16.9"/>
<path class="st0" d="M86.1,68.5c0,0-12.9,38.8,1,32.7c2.2-1,4-2.6,5.2-4.7c3.7-6,12-21.9,6.4-35.6c-0.7-1.6-2.2-2.7-3.9-2.8
	c-3.7-0.1-9.5,2.6-9.8,21.1c-0.1,3.5,0.9,7.1,3,10c3.6,5,11,9.3,24.3-3.6c0,0,43.5-40.3,46.3-64.9c0.4-3.2-0.2-6.4-1.9-9.1
	c-2.7-4.4-8.5-8.1-19.1,9.1c-1.1,1.9-1.8,3-2.5,4.7c-4.8,10.8-21.2,55.9-18.7,73.3c0,0,20.4-37.1,20.2-7.8c0,0,0.9,16.1-15.6,21.8
	c-0.7,0.2-1.4,0.3-2.2,0.2c-1.6-0.2-4-1.2-1.8-4.9c1.3-2.2,3.4-3.9,5.8-4.8c1.8-0.7,4.3-1.4,7.8-1.7c0,0,10.6,1.1,20.1-14.5
	c0,0,5.3-7.9,8.1-15.2c0,0-15.3,52.9,1.2,32.8c0,0,19.6-22.3,20.5-28.2c0,0-13.3,38-1.5,16.7c0,0,12.1-27.1,17.5-23.9
	c0.8,0.5,1.1,1.5,0.9,2.3c-1.4,6.4-8.6,40.8,2.3,27.4c0.5-0.6,1-1.2,1.5-1.7c2-2.1,6.6-7.1,12.4-13.8c0.8-1,1.7-2,2.6-3.1
	c16.7-19.7,40-50.9,37.3-67.6c-0.2-1.2-0.9-2.3-1.8-3C246.5,5.9,229.3,0.4,214,87c0,0-5.4,24.2-4.8,23.8c0.6-0.5,0.6-0.5,0.6-0.5
	l0,0c0,0,1.3-5.4,3.4-11.2c2.5-6.9,6.1-14.5,9.9-14.3c0,0,5.7,1.1-9.5,15.4c0,0,9.6-4.6,4.6,13.1c0,0-1,13.5,28.6-38.3
	c0,0-12.8,57.9,10.8,20.4l12.1-17.6c0,0-11.9,38.3,2.6,8.2c0,0,18.5-41.6,7.2,1.7c0,0-5.3,17.8,8-3.2c0,0,9.3-15.1,0.5,12.8
	c0,0-7.6,26.9,21.9-18.4"/>
<path class="st0" d="M161,61.6c-0.7,0-1.4,0.4-1.9,1c-0.7,0.9-1.5,2.4-0.9,3.8c0.4,0.9,1.3,1.6,2.3,1.5c1-0.1,2.1-0.7,2.5-3.3
	C163,64.6,163.3,61.6,161,61.6z"/>
<path class="st0" d="M252.3,62.4c-0.9-0.4-1.9-0.2-2.7,0.5l-0.3,0.3c-1.6,1.4-1,4.2,1.1,4.7c0.2,0,0.4,0.1,0.6,0.1
	c1.2,0,2.2-1,2.5-2.1C253.9,64.7,254,63.1,252.3,62.4z"/>
</svg>
