<?xml version="1.0" encoding="utf-8"?>
<!-- Generator: Adobe Illustrator 25.0.0, SVG Export Plug-In . SVG Version: 6.00 Build 0)  -->
<svg version="1.1" id="Layer_2" xmlns="http://www.w3.org/2000/svg" xmlns:xlink="http://www.w3.org/1999/xlink" x="0px" y="0px"
	 viewBox="0 0 253.8 82.7" style="enable-background:new 0 0 253.8 82.7;" xml:space="preserve">
<style type="text/css">
	.st0{fill:none;stroke:#F40000;stroke-width:2;stroke-linecap:round;stroke-linejoin:round;stroke-miterlimit:10;}
</style>
<path class="st0" d="M38,5.8C38.6,8.2,24.2,67.7,6,74.9c-0.3-0.1,12.4-8.5,28.5-49.2c0.9-2.3,2.2-4.5,3.8-6.4
	c7.4-8.6,24.4-21.8,24.3,8.4c0,0,0,31.8-25.9,45.9c-1.2,0.3-14.6,8.6-14.6-10.5"/>
<path class="st0" d="M68.3,50.1c-0.7,0.1-9.5,22.5,5.2,15.1c0,0,11.5-7.4,8.5-22.3c-0.2-0.9-0.7-1.7-1.3-2.4
	c-2.1-1.9-6.9-4.1-12.2,9.2c0,0-2.8,10.1,11.4,12.2c0,0,0.1,0,0.1,0c1-0.1,15.3-4.2,33.3-24.8c0,0,22-27.1,9.9-29.9
	c0.4,0.3-15.2-5.5-30.6,57c0,0,13.5-19.1,18-7.1c0,0,2.6,5.7-14.3,16.6c0,0-6.9-5.7,13.5-7.5c0,0,19.7-11.4,17-17.2
	c0,0-12,31.3,3,18.6c0,0,11.2-8.1,14.9-15.4c0,0-2-3.7-5.3,12.4c0,0,15.6-20.9,18-17.9c0,0-10.2,30.1,2.8,18.3
	c0,0,48.4-40.5,41.4-54.5c0,0-11.9-26.4-36,61.8c0,0,8.2-19.9,13-15.4c0,0,1.4,4.5-8.4,8.6c0,0,6.8-3.7,4.9,8.8
	c0,0,22.4-18.1,23.5-25c0,0-11,29.8,2,18.4c0,0,15-12.3,14.8-15.5c0,0-10,27.8,4.9-0.4c0,0.1,11.3-17.6,3.1,8.1
	c-0.6,1.9,0.4,1.9,1.2,1c1.1-1.1,3.7-2.6,7.4-7.5c0.9-0.1-12.6,33.3,14.6-0.2"/>
<path class="st0" d="M128.3,41.1c0,0-3.4,1.8-1.2,4.1c0,0,0.1,0.1,0.2,0.1c0.5,0.2,2.8,0.8,3-1.6c0,0,0-0.1,0-0.2
	C130.4,40.7,128.9,40.7,128.3,41.1z"/>
<path class="st0" d="M198.1,42.2c0,0-1.5,2.4,0.9,3.2c0,0,2.6,0.9,2.6-1.4c0,0,0.1-2.1-0.9-2.8C200.7,41.2,199.1,40.4,198.1,42.2z"
	/>
<path class="st0" d="M197.2,44"/>
</svg>
