<?xml version="1.0" encoding="utf-8"?>
<!-- Generator: Adobe Illustrator 25.0.0, SVG Export Plug-In . SVG Version: 6.00 Build 0)  -->
<svg version="1.1" id="Layer_1" xmlns="http://www.w3.org/2000/svg" xmlns:xlink="http://www.w3.org/1999/xlink" x="0px" y="0px"
	 viewBox="0 0 268.4 93" style="enable-background:new 0 0 268.4 93;" xml:space="preserve">
<style type="text/css">
	.st0{fill:none;stroke:#FF0000;stroke-width:3;stroke-linecap:round;stroke-linejoin:round;stroke-miterlimit:10;}
	.st1{fill:none;stroke:#FF0000;stroke-miterlimit:10;}
</style>
<path class="st0" d="M9.6,28.1c0,0-4.6,31.1-1.9,56.5c0,0,5.4-71.8,27.2-72.5c0.2,0,0.4,0,0.6,0c21.7,0.6,12.1,67.9-16.8,71.6
	c0,0-29.9,0.9,43.2-29c0,0-2.8,19.6,11.4,8.8c0,0,4.6-3.5-1.2-15.1c-0.5-1.1-1.7-1.8-2.9-1.8c-3.3,0-9.4,0.9-6.9,8.1
	c0,0,12,26.7,26.7-3.7c0,0,25.4-43.6,7.2-39c0,0-17.6,1.8-10,52.8c0,0,15.6-36,14.1-4c0,0-0.4,10-11.6,10.1c0,0,19.6-2.4,21.6-15
	c0,0,0.7-2.3,2.5-10.2c0,0-5.2,35.3,11.2,15.8c0,0,4.6-7.2,2.3-15.9c0,0-1.7-3.9-1.2,20.6c0,0,13.2-41.2,10.2,0
	c-0.1,1,0.1,2,0.5,2.8c1.1,2.2,4.1,3.8,11.2-13.1"/>
<path class="st0" d="M162.7,11.8c0,0,0.8,19.8-1.1,38.7c0,0.3-0.1,0.7-0.1,1c-2,18.9-6.9,36.5-18,31.9c0,0-10-9.3,21-35.4
	c0,0,19.2-32.3,35.5-30.4c0,0,13.7,11.2-8,20.3"/>
<path class="st0" d="M161.5,51.1c0,0,24,66.4,51.1,7.2c0,0,1.8-2.5,3-11.6c-3.9-1.6,0.8,33.4,9.1,15.9c0.5-1.1,0.9-2.2,1.1-3.3
	c0.4-2.3,1-6.7,0.9-13.7l0.9,20c0-0.1,7.7-42.2,10.2-4.3c0,0,9.4-31.5,8.2,3.7c-0.1,3.6,4.4,5.3,6.7,2.5c1.7-2.1,3.7-5.8,5.8-12.2"
	/>
<path class="st1" d="M114.2,43.8"/>
<path class="st1" d="M112.8,33.2"/>
<path class="st0" d="M112.8,40.1c-0.9,0.8-1.5,2.2,0,3.1c0.9,0.5,1.9,0.4,2.7-0.2c0.9-0.6,1.5-1.7-0.1-2.9
	C114.7,39.6,113.5,39.5,112.8,40.1z"/>
<path class="st0" d="M215.7,39.5c-0.3,0-0.5,0.2-0.7,0.4c-0.6,0.6-1.8,2.1-0.2,3.5c0,0,2.9,1.8,3.3-1.5
	C218.1,41.8,218.7,39,215.7,39.5z"/>
</svg>
