<?xml version="1.0" encoding="utf-8"?>
<!-- Generator: Adobe Illustrator 25.0.0, SVG Export Plug-In . SVG Version: 6.00 Build 0)  -->
<svg version="1.1" xmlns="http://www.w3.org/2000/svg" xmlns:xlink="http://www.w3.org/1999/xlink" x="0px" y="0px"
	 viewBox="0 0 268.4 93.03" style="enable-background:new 0 0 268.4 93.03;" xml:space="preserve">
<style type="text/css">
	.st0{fill:none;stroke:#FF0000;stroke-width:3;stroke-linecap:round;stroke-linejoin:round;stroke-miterlimit:10;}
	.st1{fill:none;stroke:#FF0000;stroke-miterlimit:10;}
</style>
	<path class="st0" d="M9.62,28.08c0,0-4.63,31.13-1.9,56.55c0,0,5.37-71.77,27.21-72.47c0.2-0.01,0.39-0.01,0.59,0
		c21.67,0.57,12.08,67.94-16.75,71.64c0,0-29.94,0.95,43.25-28.99c0,0-2.85,19.6,11.41,8.79c0,0,4.56-3.47-1.16-15.09
		c-0.54-1.1-1.66-1.79-2.89-1.79c-3.35-0.02-9.43,0.89-6.88,8.09c0,0,12,26.73,26.73-3.68c0,0,25.43-43.61,7.25-38.97
		c0,0-17.58,1.79-9.98,52.76c0,0,15.62-36.03,14.11-3.95c0,0-0.45,10.01-11.61,10.13c0,0,19.6-2.38,21.62-14.97
		c0,0,0.71-2.26,2.5-10.22c0,0-5.23,35.29,11.17,15.8c0,0,4.63-7.25,2.26-15.92c0,0-1.66-3.92-1.19,20.55
		c0,0,13.19-41.17,10.17-0.04c-0.07,0.97,0.07,1.96,0.51,2.83c1.11,2.22,4.09,3.79,11.18-13.12"/>
	<path class="st0" d="M162.71,11.81c0,0,0.79,19.78-1.14,38.65c-0.03,0.34-0.07,0.67-0.11,1.01c-2.03,18.88-6.85,36.46-18,31.86
		c0,0-9.98-9.29,21.03-35.39c0,0,19.25-32.33,35.47-30.37c0,0,13.72,11.23-8.02,20.32"/>
	<path class="st0" d="M161.5,51.13c0,0,24.02,66.42,51.11,7.25c0,0,1.78-2.5,3.03-11.58c-3.92-1.56,0.83,33.43,9.09,15.94
		c0.5-1.06,0.86-2.19,1.08-3.34c0.43-2.28,1-6.67,0.88-13.67l0.89,19.96c-0.01-0.09,7.72-42.16,10.16-4.28
		c0,0.02,9.45-31.46,8.18,3.74c-0.13,3.55,4.44,5.29,6.69,2.54c1.73-2.11,3.71-5.83,5.8-12.17"/>
	<path class="st1" d="M114.24,43.77"/>
	<path class="st1" d="M112.81,33.25"/>
	<path class="st0" d="M112.81,40.08c-0.91,0.81-1.52,2.19,0.03,3.12c0.86,0.52,1.93,0.43,2.74-0.17c0.86-0.64,1.53-1.67-0.13-2.93
		C114.74,39.57,113.48,39.49,112.81,40.08z"/>
	<path class="st0" d="M215.66,39.51c-0.26,0.04-0.51,0.17-0.7,0.36c-0.62,0.61-1.77,2.08-0.19,3.46c0,0,2.88,1.75,3.3-1.48
		C218.07,41.84,218.72,39.01,215.66,39.51z"/>
</svg>
